<?xml version="1.0" encoding="utf-8"?>
<!-- Generator: Adobe Illustrator 15.0.2, SVG Export Plug-In . SVG Version: 6.00 Build 0)  -->
<!DOCTYPE svg PUBLIC "-//W3C//DTD SVG 1.1//EN" "http://www.w3.org/Graphics/SVG/1.1/DTD/svg11.dtd">
<svg version="1.1" id="Layer_1" xmlns="http://www.w3.org/2000/svg" xmlns:xlink="http://www.w3.org/1999/xlink" x="0px" y="0px"
	 width="48px" height="48px" viewBox="0 0 48 48" enable-background="new 0 0 48 48" xml:space="preserve">
<g>
	<path fill="none" d="M45.986,9.57h-5.132c-0.308,5.711-1.325,11.03-4.285,14.679C41.961,21.483,45.731,18.595,45.986,9.57z"/>
	<path fill="none" d="M7.172,9.57H2.014c0.256,9.049,4.046,11.928,9.46,14.701C8.5,20.621,7.481,15.292,7.172,9.57z"/>
	<path fill="#855F13" d="M35.228,27.151C42.081,23.791,48,20.889,48,8.57c0-0.552-0.447-1-1-1h-6.063
		c0.028-1.016,0.04-2.039,0.04-3.062c0-0.552-0.447-1-1-1H24.014H8.05c-0.552,0-1,0.448-1,1c0,1.024,0.012,2.047,0.04,3.062H1
		c-0.552,0-1,0.448-1,1C0,20.888,5.919,23.791,12.772,27.15c1.635,0.802,3.326,1.631,5.021,2.63
		c0.014,0.008,0.029,0.011,0.043,0.019c0.732,0.843,1.067,1.716,0.988,3.035c-0.117,1.951-1.362,3.222-2.805,4.694
		c-1.47,1.5-3.136,3.2-3.561,5.841c-0.046,0.289,0.036,0.585,0.226,0.808s0.468,0.352,0.761,0.352H34.58
		c0.293,0,0.572-0.129,0.762-0.352s0.272-0.519,0.227-0.808c-0.426-2.641-2.092-4.341-3.562-5.841
		c-1.442-1.473-2.688-2.743-2.805-4.694c-0.079-1.328,0.262-2.205,1.005-3.054C31.902,28.782,33.593,27.953,35.228,27.151z
		 M45.986,9.57c-0.255,9.025-4.025,11.913-9.417,14.679c2.96-3.648,3.978-8.967,4.285-14.679H45.986z M2.014,9.57h5.158
		c0.309,5.723,1.329,11.051,4.302,14.701C6.06,21.498,2.27,18.619,2.014,9.57z"/>
</g>
<g>
	<path fill="#E6C253" d="M33.277,42.528c-0.547-1.404-1.599-2.478-2.699-3.601c-1.578-1.611-3.211-3.277-3.372-5.975
		c-0.21-3.508,1.675-4.93,4.527-7.083c0.519-0.391,1.079-0.813,1.679-1.288c4.69-3.706,5.502-11.278,5.562-19.075h-14.96H9.054
		c0.059,7.797,0.871,15.37,5.562,19.075c0.6,0.474,1.16,0.897,1.678,1.288c2.853,2.153,4.738,3.575,4.527,7.083
		c-0.161,2.697-1.793,4.363-3.372,5.975c-1.101,1.123-2.152,2.196-2.7,3.601H24H33.277z"/>
</g>
<path fill="#BA9525" d="M38.92,8.089H9.107c0.012,0.335,0.027,0.668,0.043,1h29.727C38.893,8.757,38.908,8.424,38.92,8.089z"/>
<path fill="#BA9525" d="M29.846,38.167H18.182c-0.242,0.257-0.487,0.511-0.732,0.761c-0.079,0.08-0.153,0.159-0.231,0.239h13.59
	c-0.077-0.08-0.152-0.159-0.23-0.239C30.333,38.678,30.088,38.424,29.846,38.167z"/>
<path fill="#BA9525" d="M27.959,35.658h-7.891c-0.184,0.353-0.397,0.682-0.625,1h9.142C28.356,36.34,28.143,36.011,27.959,35.658z"
	/>
<g>
	<path fill="#FFFFFF" d="M29.378,16.1c-0.03-0.092-0.115-0.155-0.214-0.155h-3.781l-1.168-3.609
		c-0.03-0.093-0.116-0.155-0.213-0.155c-0.098,0-0.185,0.062-0.214,0.155l-1.168,3.609h-3.783c-0.097,0-0.183,0.063-0.213,0.155
		c-0.03,0.093,0.002,0.193,0.081,0.251l3.061,2.23l-1.169,3.61c-0.03,0.093,0.003,0.194,0.082,0.251
		c0.078,0.057,0.186,0.057,0.264,0l3.061-2.23l3.059,2.23c0.04,0.03,0.087,0.043,0.133,0.043s0.093-0.014,0.132-0.043
		c0.078-0.058,0.112-0.159,0.082-0.251l-1.17-3.61l3.061-2.23C29.375,16.293,29.409,16.193,29.378,16.1z"/>
	<path fill="#BA9525" d="M24.001,12.181c0.097,0,0.183,0.062,0.213,0.155l1.168,3.609h3.781c0.099,0,0.184,0.063,0.214,0.155
		c0.031,0.093-0.003,0.193-0.081,0.251l-3.061,2.23l1.17,3.61c0.03,0.093-0.004,0.194-0.082,0.251
		c-0.039,0.029-0.086,0.043-0.132,0.043s-0.093-0.014-0.133-0.043l-3.059-2.23l-3.061,2.23c-0.039,0.029-0.086,0.043-0.132,0.043
		s-0.093-0.014-0.132-0.042c-0.079-0.058-0.112-0.159-0.082-0.251l1.169-3.61l-3.061-2.23c-0.079-0.058-0.111-0.158-0.081-0.251
		c0.03-0.092,0.117-0.155,0.213-0.155h3.783l1.168-3.609C23.816,12.243,23.903,12.181,24.001,12.181 M24.001,11.181
		c-0.535,0-1.004,0.342-1.167,0.851l-0.943,2.913h-3.056c-0.53,0-0.997,0.338-1.163,0.841c-0.164,0.512,0.014,1.059,0.439,1.371
		l2.477,1.805l-0.945,2.92c-0.164,0.502,0.013,1.052,0.441,1.366c0.214,0.155,0.463,0.236,0.723,0.236
		c0.262,0,0.512-0.082,0.723-0.236l2.471-1.8l2.47,1.801c0.204,0.152,0.456,0.235,0.722,0.235c0.263,0,0.523-0.086,0.731-0.243
		c0.421-0.31,0.597-0.859,0.433-1.361l-0.945-2.918l2.475-1.804c0.435-0.32,0.609-0.872,0.44-1.377
		c-0.164-0.499-0.632-0.837-1.162-0.837H26.11l-0.944-2.917C25.001,11.521,24.533,11.181,24.001,11.181L24.001,11.181z"/>
</g>
</svg>
