<?xml version="1.0" encoding="utf-8"?>
<!-- Generator: Adobe Illustrator 15.0.2, SVG Export Plug-In . SVG Version: 6.00 Build 0)  -->
<!DOCTYPE svg PUBLIC "-//W3C//DTD SVG 1.1//EN" "http://www.w3.org/Graphics/SVG/1.1/DTD/svg11.dtd">
<svg version="1.1" id="Layer_1" xmlns="http://www.w3.org/2000/svg" xmlns:xlink="http://www.w3.org/1999/xlink" x="0px" y="0px"
	 width="48px" height="48px" viewBox="0 0 48 48" enable-background="new 0 0 48 48" xml:space="preserve">
<g>
	<path fill-rule="evenodd" clip-rule="evenodd" fill="#FFD500" d="M48,45.623C48,46.938,46.936,48,45.621,48H2.379
		c-1.313,0-2.378-1.062-2.378-2.377L0,2.378C0,1.065,1.065,0,2.379,0h43.242C46.936,0,48,1.065,48,2.378V45.623z"/>
</g>
<g>
	<path fill="#A84900" d="M32.623,8.888c-4.816,0-8.751,3.739-9.084,8.472l-5.754,1.432c0.083-0.149,0.16-0.303,0.225-0.469
		c0.579-1.479,0.168-3.022-0.918-3.448c-1.086-0.425-2.436,0.429-3.015,1.907c-0.424,1.082-0.313,2.195,0.2,2.883l-0.681,0.169
		c-0.466,0.117-0.919,0.594-1.012,1.066l-1.749,8.979L6.873,43.906l2.318-0.77l4.223-11.621l0.004-0.016l3.463,0.816l-1.608,9.418
		l1.535-0.461l2.392-9.531c0.128-0.463-0.128-0.99-0.572-1.176l-4.338-1.814l2.234-7.042l7.013-3.106
		c0.31,4.754,4.254,8.518,9.086,8.518c5.034,0,9.116-4.082,9.116-9.117C41.739,12.97,37.657,8.888,32.623,8.888z"/>
	<path fill="#FFFFFF" d="M32.623,8.888c5.034,0,9.116,4.082,9.116,9.117c0,5.035-4.082,9.117-9.116,9.117
		c-4.832,0-8.776-3.763-9.086-8.518l-7.013,3.106l-2.234,7.042l4.338,1.814c0.444,0.186,0.7,0.713,0.572,1.176l-2.392,9.531
		l-1.535,0.461l1.608-9.418L13.418,31.5l-0.004,0.016L9.19,43.137l-2.318,0.77l3.963-14.027l1.749-8.979
		c0.092-0.472,0.545-0.949,1.012-1.066l0.681-0.169c-0.513-0.688-0.624-1.801-0.2-2.883c0.478-1.221,1.482-2.016,2.43-2.016
		c0.199,0,0.396,0.035,0.585,0.109c1.086,0.425,1.497,1.969,0.918,3.448c-0.065,0.166-0.142,0.32-0.225,0.469l5.754-1.432
		C23.872,12.626,27.807,8.888,32.623,8.888 M32.623,7.888c-5.036,0-9.295,3.752-10.003,8.67l-3.368,0.838
		c0.048-0.499,0.012-0.991-0.11-1.449c-0.253-0.953-0.868-1.683-1.685-2.003c-0.302-0.118-0.621-0.178-0.95-0.178
		c-1.389,0-2.74,1.065-3.361,2.651c-0.345,0.881-0.417,1.801-0.23,2.61c-0.653,0.327-1.175,0.977-1.312,1.681l-1.741,8.939
		L5.91,43.635l-0.513,1.814l1.79-0.594l2.318-0.77l0.459-0.152l0.166-0.455l3.925-10.801l1.682,0.396l-1.45,8.492l-0.271,1.59
		l1.545-0.464l1.535-0.461l0.544-0.164l0.138-0.551l2.392-9.531c0.257-0.923-0.249-1.962-1.156-2.342l-3.494-1.461l1.821-5.741
		l5.385-2.386c0.955,4.62,5.061,8.065,9.897,8.065c5.578,0,10.116-4.539,10.116-10.117C42.739,12.426,38.201,7.888,32.623,7.888
		L32.623,7.888z"/>
</g>
<g>
	<path fill-rule="evenodd" clip-rule="evenodd" fill="#4A1600" d="M48,45.623C48,46.938,46.936,48,45.621,48H2.379
		c-1.313,0-2.378-1.062-2.378-2.377L48,19.75V45.623z"/>
</g>
<path fill="#4A1600" d="M45.621,2C45.83,2,46,2.169,46,2.378V19.75v25.873C46,45.831,45.83,46,45.621,46H2.379
	c-0.208,0-0.378-0.169-0.378-0.377L2,2.378C2,2.169,2.17,2,2.379,2H45.621 M45.621,0H2.379C1.065,0,0,1.065,0,2.378l0.001,43.245
	C0.001,46.938,1.065,48,2.379,48h43.242C46.936,48,48,46.938,48,45.623V19.75V2.378C48,1.065,46.936,0,45.621,0L45.621,0z"/>
</svg>
