<?xml version="1.0" encoding="utf-8"?>
<!-- Generator: Adobe Illustrator 15.0.2, SVG Export Plug-In . SVG Version: 6.00 Build 0)  -->
<!DOCTYPE svg PUBLIC "-//W3C//DTD SVG 1.1//EN" "http://www.w3.org/Graphics/SVG/1.1/DTD/svg11.dtd">
<svg version="1.1" id="Layer_1" xmlns="http://www.w3.org/2000/svg" xmlns:xlink="http://www.w3.org/1999/xlink" x="0px" y="0px"
	 width="48px" height="48px" viewBox="0 0 48 48" enable-background="new 0 0 48 48" xml:space="preserve">
<g>
	<g>
		<path fill="#CDCDD1" d="M44.818,10.761c-3.006-5.466-8.815-9.172-15.495-9.172c-9.764,0-17.678,7.915-17.678,17.677
			c0,0.295,0.03,0.582,0.044,0.873c0.458,9.355,8.166,16.805,17.634,16.805C39.087,36.944,47,29.029,47,19.266
			C47,16.182,46.207,13.285,44.818,10.761z"/>
	</g>
	<g>
		<path fill="#81838C" d="M34.945,13.673c-0.019-0.058-1.922-5.821-5.93-8.94l0.613-0.789c4.256,3.311,6.188,9.173,6.268,9.421
			L34.945,13.673z"/>
	</g>
	<g>
		<path fill="#81838C" d="M41.414,16.069l-0.734-0.679c0.023-0.025,2.325-2.534,3.179-4.921l0.941,0.337
			C43.877,13.388,41.514,15.961,41.414,16.069z"/>
	</g>
	<g>
		<path fill="#81838C" d="M45.841,25.472c-2.178-2.539-4.271-3.524-4.292-3.534l0.417-0.909c0.093,0.042,2.303,1.074,4.635,3.792
			L45.841,25.472z"/>
	</g>
	<g>
		<path fill="#81838C" d="M33.996,33.275l-0.982-0.191c1.218-6.257,1.678-8.617,1.972-9.496h0.434h-0.434
			c0.178-0.531,0.293-0.521,0.482-0.503l0.453,0.503h-0.485l0.457,0.154C35.813,24.018,35.087,27.671,33.996,33.275z"/>
	</g>
	<g>
		<path fill="#81838C" d="M23.753,20.36l-0.176-0.984c3.033-0.54,8.205-0.987,8.256-0.992l0.086,0.996
			C31.868,19.385,26.741,19.828,23.753,20.36z"/>
	</g>
	<g>
		<path fill="#81838C" d="M17.851,10.812l-0.938-0.349c1.477-3.966,5.411-6.92,5.578-7.044l0.596,0.803
			C23.049,4.251,19.223,7.129,17.851,10.812z"/>
	</g>
	<g>
		<path d="M30.954,5.851c0,0-6.928-0.531-10.493,0c0,0,1.258-1.871,3.015-3.099c0.394-0.274,5.521-2.263,10.63,0.453
			C34.105,3.204,32.721,4.601,30.954,5.851z"/>
	</g>
	<g>
		<path fill="#404145" d="M29.323,37.944c-10.299,0-18.678-8.379-18.678-18.678c0-10.299,8.379-18.677,18.678-18.677
			C39.622,0.589,48,8.967,48,19.266C48,29.565,39.622,37.944,29.323,37.944z M29.323,2.589c-9.196,0-16.678,7.481-16.678,16.677
			c0,9.197,7.482,16.678,16.678,16.678C38.519,35.944,46,28.463,46,19.266C46,10.07,38.519,2.589,29.323,2.589z"/>
	</g>
	<g>
		<path d="M34.472,11.281l-4.48,7.652c0,0,3.585,5.416,5.303,6.537c4.481-0.746,7.584-3.265,7.584-3.265s0.468-4.442-0.586-7.999
			C42.292,14.207,37.907,12.037,34.472,11.281z"/>
	</g>
	<g>
		<path d="M33.708,32.382c0,0,2.034,1.264,4.001,1.937c0,0-6.767,3.937-12.077,1.137C25.632,35.455,29.115,35.455,33.708,32.382z"/>
	</g>
	<g>
		<g>
			<g>
				<path fill="#CF6E00" d="M10.55,41.196c0,0-1.94,2.486-4.266,2.938c-3.107,0.604-6.542-5.626-4.825-8.502
					c1.718-2.876,5.179-2.93,6.979,1.894"/>
			</g>
			<g>
				<path fill="#5E3200" d="M5.868,45.175c-1.443,0-2.957-0.958-4.153-2.661c-1.439-2.05-2.402-5.238-1.114-7.394
					c1.005-1.684,2.562-2.591,4.179-2.454c1.125,0.103,3.219,0.824,4.595,4.511c0.193,0.518-0.07,1.094-0.587,1.286
					c-0.517,0.193-1.093-0.069-1.287-0.587c-0.725-1.943-1.783-3.116-2.902-3.218c-0.845-0.08-1.671,0.467-2.281,1.487
					c-0.678,1.135-0.223,3.427,1.034,5.219c0.885,1.26,1.942,1.943,2.741,1.789c1.922-0.374,3.652-2.552,3.67-2.573
					c0.341-0.435,0.97-0.509,1.403-0.171c0.434,0.341,0.512,0.968,0.172,1.402c-0.089,0.113-2.202,2.787-4.864,3.305
					C6.274,45.155,6.072,45.175,5.868,45.175z"/>
			</g>
		</g>
		<g>
			<g>
				<path fill="#CF6E00" d="M12.703,12.072c0,0-0.395-3.035-2.278-2.809s-3.839,2.676-3.277,5.13
					c0.498,2.172,3.031,1.845,3.784,1.902"/>
			</g>
			<g>
				<path fill="#5E3200" d="M10.933,17.296c-0.025,0-0.051-0.001-0.077-0.003c-0.083-0.006-0.194-0.006-0.324-0.006
					c-1.026-0.005-3.751-0.02-4.359-2.669c-0.324-1.415,0.004-2.958,0.902-4.234c0.83-1.179,2.037-1.969,3.23-2.112
					c2.257-0.27,3.195,2.18,3.389,3.672c0.071,0.548-0.315,1.049-0.863,1.121c-0.553,0.073-1.048-0.314-1.12-0.86
					c-0.056-0.409-0.437-2.035-1.168-1.947c-0.629,0.076-1.332,0.565-1.833,1.277c-0.572,0.813-0.787,1.774-0.589,2.636
					c0.213,0.929,1.015,1.109,2.42,1.117c0.186,0.001,0.345,0.003,0.465,0.012c0.551,0.042,0.963,0.522,0.921,1.073
					C11.89,16.896,11.451,17.296,10.933,17.296z"/>
			</g>
		</g>
		<g>
			<g>
				<path fill="#CF6E00" d="M10.847,29.261c0.016-0.059-4.804,0.409-6.462-0.572c-1.211-0.717-1.163-4.824,1.022-5.653
					c1.936-0.734,7.681,1.926,6.965,1.554"/>
			</g>
			<g>
				<path fill="#5E3200" d="M8.483,30.32c-1.787,0-3.573-0.159-4.608-0.771c-1.104-0.653-1.37-2.351-1.262-3.605
					c0.163-1.889,1.074-3.326,2.438-3.843c1.319-0.499,3.687-0.026,7.462,1.485l0.065,0.026c0.086,0.018,0.171,0.048,0.254,0.091
					c0.473,0.246,0.731,0.855,0.509,1.339c-0.265,0.578-0.793,0.713-1.572,0.4c-4.462-1.787-5.727-1.577-6.008-1.471
					c-0.537,0.204-0.952,0.87-1.109,1.781c-0.182,1.056,0.072,1.932,0.253,2.086c0.483,0.285,1.833,0.602,5.436,0.435
					c0.599-0.024,0.957-0.043,1.283,0.361l-1.574,1.234l0.795-0.607l-0.052,0.996c-0.059,0.021-0.186,0.006-0.36,0.014
					C9.81,30.298,9.146,30.32,8.483,30.32z"/>
			</g>
		</g>
		<g>
			<g>
				<path fill="#CF6E00" d="M23.666,35.077c0-4.292-3.14-13.017-7.483-13.017c-2.048,0-5.328,2.835-5.586,5.612
					c-0.366,3.929-2.607,4.808-2.607,8.255c0,4.291,3.472,6.919,7.814,6.919C20.146,42.847,23.666,39.368,23.666,35.077z"/>
			</g>
			<g>
				<path fill="#5E3200" d="M15.804,43.847c-5.19,0-8.814-3.257-8.814-7.919c0-1.999,0.667-3.255,1.311-4.47
					c0.585-1.103,1.139-2.144,1.3-3.878c0.307-3.296,4.028-6.52,6.582-6.52c5.278,0,8.483,9.735,8.483,14.017
					C24.666,39.913,20.69,43.847,15.804,43.847z M16.183,23.061c-1.488,0-4.374,2.371-4.591,4.705
					c-0.199,2.133-0.903,3.46-1.525,4.631c-0.602,1.134-1.078,2.029-1.078,3.531c0,3.485,2.802,5.919,6.814,5.919
					c3.784,0,6.862-3.037,6.862-6.77C22.666,31.12,19.665,23.061,16.183,23.061z"/>
			</g>
		</g>
		<g>
			<g>
				<path fill="#CF6E00" d="M24.325,18.434c0-4.305-3.489-7.795-7.795-7.795c-4.305,0-7.795,3.49-7.795,7.795
					c0,4.305,3.49,7.795,7.795,7.795C21.302,26.229,24.325,23.205,24.325,18.434z"/>
			</g>
			<g>
				<path fill="#5E3200" d="M16.53,27.229c-4.85,0-8.795-3.945-8.795-8.795s3.946-8.795,8.795-8.795s8.795,3.946,8.795,8.795
					C25.325,23.776,21.873,27.229,16.53,27.229z M16.53,11.638c-3.747,0-6.795,3.048-6.795,6.795c0,3.747,3.048,6.795,6.795,6.795
					c4.191,0,6.795-2.604,6.795-6.795C23.325,14.687,20.277,11.638,16.53,11.638z"/>
			</g>
		</g>
		<g>
			<g>
				<path fill="#CF6E00" d="M17.382,42.178c0,0,0.792,3.922,3.809,4.219s7.061-3.856,5.727-8.912
					c-0.922-3.493-5.518-2.97-7.344,1.429"/>
			</g>
			<g>
				<path fill="#5E3200" d="M21.492,47.411c-0.134,0-0.267-0.007-0.399-0.02c-3.709-0.365-4.652-4.826-4.69-5.016
					c-0.109-0.542,0.241-1.069,0.782-1.179c0.546-0.107,1.068,0.24,1.178,0.78c0.014,0.065,0.704,3.205,2.927,3.424
					c1.047,0.102,2.357-0.579,3.343-1.736c0.662-0.776,2.115-2.909,1.319-5.926c-0.247-0.937-0.843-1.483-1.675-1.54
					c-1.189-0.079-2.849,0.857-3.779,3.098c-0.211,0.51-0.798,0.751-1.307,0.54c-0.51-0.212-0.752-0.797-0.54-1.308
					c1.315-3.169,3.846-4.46,5.761-4.326c1.706,0.116,3.004,1.247,3.474,3.026c0.73,2.766,0.1,5.585-1.73,7.732
					C24.846,46.5,23.093,47.411,21.492,47.411z"/>
			</g>
		</g>
	</g>
	<g>
		<g>
			<path fill="#CF6E00" d="M10.55,41.196c0,0-1.94,2.486-4.266,2.938c-3.107,0.604-6.542-5.626-4.825-8.502
				c1.718-2.876,5.179-2.93,6.979,1.894"/>
		</g>
		<g>
			<path fill="#5E3200" d="M5.867,44.675c-1.278,0-2.643-0.883-3.743-2.449c-1.392-1.982-2.215-4.972-1.094-6.849
				c0.904-1.515,2.29-2.345,3.705-2.213c1.009,0.092,2.892,0.758,4.171,4.188c0.097,0.259-0.035,0.547-0.293,0.644
				c-0.259,0.096-0.546-0.035-0.643-0.294c-0.795-2.131-2.007-3.422-3.325-3.541C3.6,34.058,2.601,34.695,1.888,35.89
				c-0.893,1.495-0.123,4.084,1.054,5.762c1.015,1.445,2.222,2.193,3.246,1.992c2.11-0.41,3.949-2.731,3.967-2.755
				c0.169-0.217,0.483-0.257,0.702-0.086c0.218,0.17,0.256,0.483,0.086,0.701c-0.084,0.107-2.084,2.64-4.565,3.122
				C6.21,44.658,6.039,44.675,5.867,44.675z"/>
		</g>
	</g>
	<g>
		<path fill="#F0AB5E" d="M1.034,36.944c0,0,1.097-1.75,2.841,0c2.191,2.199,2.841,8.809,0,6.77
			C1.438,41.964,0.284,38.507,1.034,36.944z"/>
	</g>
	<g>
		<path fill="#5E3200" d="M5.867,44.675c-1.278,0-2.643-0.883-3.743-2.449c-1.392-1.982-2.215-4.972-1.094-6.849
			c0.904-1.515,2.29-2.345,3.705-2.213c1.009,0.092,2.892,0.758,4.171,4.188c0.097,0.259-0.035,0.547-0.293,0.644
			c-0.259,0.096-0.546-0.035-0.643-0.294c-0.795-2.131-2.007-3.422-3.325-3.541C3.6,34.058,2.601,34.695,1.888,35.89
			c-0.893,1.495-0.123,4.084,1.054,5.762c1.015,1.445,2.222,2.193,3.246,1.992c2.11-0.41,3.949-2.731,3.967-2.755
			c0.169-0.217,0.483-0.257,0.702-0.086c0.218,0.17,0.256,0.483,0.086,0.701c-0.084,0.107-2.084,2.64-4.565,3.122
			C6.21,44.658,6.039,44.675,5.867,44.675z"/>
	</g>
	<g>
		<g>
			<path fill="#CF6E00" d="M13.163,11.401c0,0-0.397-2.42-2.616-2.407c-1.897,0.012-3.961,2.946-3.399,5.399
				c0.498,2.172,3.031,1.845,3.784,1.902"/>
		</g>
		<g>
			<path fill="#5E3200" d="M10.933,16.796c-0.013,0-0.025,0-0.038-0.001c-0.093-0.007-0.216-0.007-0.359-0.008
				c-1.004-0.005-3.355-0.018-3.875-2.281c-0.326-1.421,0.116-3.117,1.152-4.425c0.793-1.002,1.789-1.58,2.731-1.586
				c0.007,0,0.014,0,0.021,0c2.078,0,2.93,1.846,3.091,2.826c0.045,0.272-0.139,0.528-0.411,0.573
				c-0.272,0.045-0.529-0.139-0.576-0.41c-0.014-0.081-0.354-1.964-2.12-1.989c-0.628,0.004-1.358,0.455-1.953,1.207
				c-0.853,1.077-1.221,2.449-0.961,3.581c0.315,1.376,1.665,1.499,2.905,1.505c0.172,0.001,0.319,0.002,0.43,0.011
				c0.275,0.021,0.482,0.261,0.461,0.536C11.411,16.596,11.191,16.796,10.933,16.796z"/>
		</g>
	</g>
	<g>
		<path fill="#F0AB5E" d="M9.674,14.393c0,0-0.785,0.063-0.808-0.83s1.081-2.375,2.084-2.153c1.206,0.267,0.435,1.481,0.435,1.481
			L9.674,14.393z"/>
	</g>
	<g>
		<g>
			<path fill="#CF6E00" d="M11.562,29.229c0.016-0.059-5.52,0.44-7.178-0.541c-1.211-0.717-1.163-4.824,1.022-5.653
				c1.936-0.734,7.681,1.926,6.965,1.554"/>
		</g>
		<g>
			<path fill="#5E3200" d="M8.672,29.805c-1.854,0-3.632-0.146-4.542-0.686c-0.904-0.536-1.113-2.022-1.018-3.133
				c0.146-1.692,0.937-2.971,2.118-3.418c1.176-0.445,3.498,0.039,7.098,1.481c0.043,0.017,0.081,0.033,0.114,0.046
				c0.054,0.007,0.108,0.023,0.161,0.051c0.237,0.123,0.396,0.445,0.285,0.688c-0.2,0.437-0.605,0.275-0.932,0.145
				c-4.343-1.739-5.854-1.669-6.372-1.475c-0.957,0.363-1.39,1.566-1.476,2.57c-0.095,1.1,0.202,1.991,0.531,2.186
				c1.214,0.72,5.099,0.544,6.375,0.485c0.667-0.031,0.77-0.036,0.938,0.172l-0.791,0.612l0.401-0.299l-0.044,0.496
				c-0.064,0-0.223,0.007-0.459,0.018C10.292,29.776,9.475,29.805,8.672,29.805z"/>
		</g>
	</g>
	<g>
		<g>
			<path fill="#CF6E00" d="M23.666,35.077c0-4.292-3.14-13.017-7.483-13.017c-2.048,0-5.328,2.835-5.586,5.612
				c-0.366,3.929-2.607,4.808-2.607,8.255c0,4.291,3.472,6.919,7.814,6.919C20.146,42.847,23.666,39.368,23.666,35.077z"/>
		</g>
		<g>
			<path fill="#5E3200" d="M15.804,43.347c-4.896,0-8.314-3.051-8.314-7.419c0-1.875,0.637-3.074,1.253-4.234
				c0.583-1.098,1.185-2.232,1.356-4.067c0.281-3.009,3.776-6.065,6.084-6.065c4.967,0,7.983,9.388,7.983,13.517
				C24.166,39.637,20.415,43.347,15.804,43.347z M16.183,22.561c-1.692,0-4.845,2.549-5.088,5.159
				c-0.19,2.033-0.869,3.312-1.469,4.442c-0.61,1.148-1.136,2.14-1.136,3.766c0,3.779,3.008,6.419,7.314,6.419
				c4.059,0,7.362-3.261,7.362-7.27C23.166,30.902,20.146,22.561,16.183,22.561z"/>
		</g>
	</g>
	<g>
		<path fill="#F0AB5E" d="M8.201,36.944c0,0,0.924,3.76,5.049,3.858s6.454-3.571,5.915-6.424s-1.102-3.763-0.415-5.058
			s1.098-2.705,0.018-3.344s-7.362-4.67-7.983,0.851c-0.375,3.335-1.225,4.921-2.161,6.216S7.717,35.798,8.201,36.944z"/>
	</g>
	<g>
		<path fill="#5E3200" d="M15.804,43.347c-4.896,0-8.314-3.051-8.314-7.419c0-1.827,0.65-2.999,1.279-4.133
			c0.617-1.11,1.254-2.26,1.328-4.142c0.144-3.663,3.758-6.093,6.086-6.093c4.967,0,7.983,9.388,7.983,13.517
			C24.166,39.637,20.415,43.347,15.804,43.347z M16.183,22.561c-1.722,0-4.962,1.948-5.087,5.132
			c-0.083,2.12-0.811,3.432-1.453,4.588c-0.619,1.116-1.154,2.079-1.154,3.647c0,3.779,3.008,6.419,7.314,6.419
			c4.059,0,7.362-3.261,7.362-7.27C23.166,30.902,20.146,22.561,16.183,22.561z"/>
	</g>
	<g>
		<g>
			<path fill="#CF6E00" d="M24.325,18.434c0-4.305-3.489-7.795-7.795-7.795c-4.305,0-7.795,3.49-7.795,7.795
				c0,4.305,3.49,7.795,7.795,7.795C21.302,26.229,24.325,23.205,24.325,18.434z"/>
		</g>
		<g>
			<path fill="#5E3200" d="M16.53,26.729c-4.574,0-8.295-3.721-8.295-8.295c0-4.574,3.721-8.295,8.295-8.295
				c4.574,0,8.295,3.721,8.295,8.295C24.825,23.473,21.569,26.729,16.53,26.729z M16.53,11.138c-4.022,0-7.295,3.273-7.295,7.295
				s3.273,7.295,7.295,7.295c4.5,0,7.295-2.795,7.295-7.295C23.825,14.411,20.553,11.138,16.53,11.138z"/>
		</g>
	</g>
	<g>
		<path fill="#F0AB5E" d="M11.713,24.436c0,0-4.603-3.617,0.021-6.102l3.604,0.561c0,0,7.582,3.591,3.825,6.982
			C16.482,26.948,12.288,25,11.713,24.436z"/>
	</g>
	<g>
		<path fill="#5E3200" d="M16.53,26.729c-4.574,0-8.295-3.721-8.295-8.295c0-4.574,3.721-8.295,8.295-8.295
			c4.574,0,8.295,3.721,8.295,8.295C24.825,23.473,21.569,26.729,16.53,26.729z M16.53,11.138c-4.022,0-7.295,3.273-7.295,7.295
			s3.273,7.295,7.295,7.295c4.5,0,7.295-2.795,7.295-7.295C23.825,14.411,20.553,11.138,16.53,11.138z"/>
	</g>
	<g>
		<g>
			<path fill="#CF6E00" d="M17.382,42.178c0,0,0.792,3.922,3.809,4.219s7.499-3.836,6.165-8.892
				c-0.922-3.493-5.956-2.99-7.782,1.408"/>
		</g>
		<g>
			<path fill="#5E3200" d="M21.5,46.911c-0.121,0-0.24-0.006-0.357-0.017c-3.346-0.33-4.214-4.442-4.25-4.618
				c-0.055-0.27,0.12-0.533,0.391-0.588c0.268-0.054,0.534,0.119,0.589,0.39c0.007,0.035,0.76,3.564,3.368,3.82
				c1.304,0.132,2.982-0.732,4.182-2.144c1.487-1.746,2.016-3.978,1.45-6.122c-0.302-1.142-1.133-1.842-2.282-1.92
				c-1.483-0.093-3.528,0.92-4.554,3.392c-0.106,0.255-0.398,0.377-0.654,0.271c-0.255-0.106-0.376-0.398-0.27-0.653
				c1.223-2.944,3.653-4.131,5.545-4.006c1.581,0.107,2.771,1.103,3.182,2.661c0.65,2.467,0.048,5.027-1.655,7.026
				C24.86,45.958,23.06,46.911,21.5,46.911z"/>
		</g>
	</g>
	<g>
		<g>
			<path fill="#CF6E00" d="M19.535,25.749c0,0,7.158-1.12,8.666-0.033c1.506,1.087,1.082,5.438-0.764,6.286
				c-1.369,0.63-6.094-0.602-7.375-1.657"/>
		</g>
		<g>
			<path fill="#5E3200" d="M26.325,32.673c-2.141,0-5.505-1.056-6.581-1.942c-0.213-0.176-0.244-0.49-0.068-0.704
				c0.174-0.211,0.491-0.244,0.704-0.067c1.174,0.969,5.671,2.127,6.848,1.589c0.685-0.314,1.23-1.415,1.359-2.737
				c0.12-1.229-0.153-2.31-0.68-2.689c-0.976-0.703-5.605-0.299-8.296,0.122c-0.271,0.044-0.529-0.144-0.571-0.417
				c-0.042-0.272,0.144-0.528,0.417-0.571c1.229-0.192,7.442-1.095,9.035,0.056c0.992,0.716,1.214,2.327,1.09,3.597
				c-0.131,1.346-0.709,2.984-1.937,3.549C27.319,32.606,26.86,32.673,26.325,32.673z"/>
		</g>
	</g>
	<g>
		<circle cx="17.904" cy="16.391" r="1.261"/>
	</g>
	<g>
		<circle cx="12.373" cy="15.653" r="1.261"/>
	</g>
	<g>
		<path d="M15.339,18.894c-0.153,0.982-1.083,1.653-2.079,1.498c-0.995-0.155-1.678-1.077-1.525-2.059S15.492,17.911,15.339,18.894z
			"/>
	</g>
	<g>
		<path fill="#F0AB5E" d="M22.004,46.162c-1.727-0.19-2.185-2.292-1.11-4.513c1.116-2.308,3.869-5.087,5.731-3.833
			S26.553,46.663,22.004,46.162z"/>
	</g>
	<g>
		<path fill="#5E3200" d="M21.481,46.91c-0.115,0-0.228-0.005-0.339-0.016c-3.346-0.33-4.214-4.442-4.25-4.618
			c-0.055-0.27,0.12-0.533,0.391-0.588c0.268-0.054,0.534,0.119,0.589,0.39c0.007,0.035,0.76,3.564,3.368,3.82
			c1.273,0.138,2.96-0.762,4.193-2.209c1.562-1.834,2.129-4.133,1.556-6.307c-0.29-1.098-1.064-1.744-2.183-1.82
			c-1.572-0.098-3.698,0.961-4.77,3.542c-0.106,0.255-0.398,0.377-0.654,0.271c-0.255-0.106-0.376-0.398-0.27-0.653
			c1.262-3.039,3.878-4.281,5.761-4.156c1.534,0.104,2.687,1.062,3.082,2.562c0.658,2.495,0.017,5.123-1.762,7.211
			C24.837,45.931,23.025,46.91,21.481,46.91z"/>
	</g>
	<g>
		<path fill="#F0AB5E" d="M27.477,32.002c-0.667,0.237-1.57-1.851-1.07-3.538s1.582-2.947,2.463-1.88S28.953,31.478,27.477,32.002z"
			/>
	</g>
	<g>
		<path fill="#5E3200" d="M26.364,32.673c-2.141,0-5.505-1.056-6.581-1.942c-0.213-0.176-0.244-0.49-0.068-0.704
			c0.175-0.211,0.491-0.244,0.704-0.067c1.175,0.968,5.671,2.129,6.849,1.589c0.685-0.314,1.23-1.415,1.359-2.738
			c0.119-1.229-0.154-2.309-0.681-2.688c-0.974-0.704-5.605-0.298-8.295,0.122c-0.269,0.044-0.528-0.144-0.571-0.417
			c-0.042-0.272,0.144-0.528,0.417-0.571c1.229-0.192,7.442-1.093,9.036,0.056c0.992,0.716,1.214,2.327,1.09,3.597
			c-0.131,1.345-0.708,2.984-1.937,3.549C27.357,32.607,26.899,32.673,26.364,32.673z"/>
	</g>
	<g>
		<path fill="#CF6E00" d="M21.153,13.115c0,0,0.81-2.237,3.172-1.863c2.376,0.375,2.824,4.323,2.416,5.667
			c-0.744,2.446-2.6,1.812-3.243,1.731"/>
	</g>
	<g>
		<path fill="#5E3200" d="M24.489,19.382c-0.536,0-1-0.152-1.252-0.306c-0.235-0.144-0.31-0.452-0.166-0.688
			c0.144-0.236,0.452-0.31,0.688-0.166c0.149,0.092,0.741,0.276,1.321,0.054c0.544-0.207,0.942-0.713,1.183-1.504
			c0.249-0.819,0.119-2.792-0.651-4.022c-0.364-0.581-0.823-0.919-1.364-1.005c-1.938-0.304-2.597,1.464-2.624,1.54
			c-0.094,0.259-0.382,0.394-0.641,0.3c-0.259-0.094-0.394-0.381-0.3-0.641c0.329-0.907,1.529-2.534,3.721-2.187
			c0.828,0.131,1.539,0.636,2.056,1.461c0.968,1.545,1.064,3.845,0.761,4.844c-0.418,1.373-1.201,1.926-1.784,2.147
			C25.114,19.334,24.79,19.382,24.489,19.382z"/>
	</g>
	<g>
		<path fill="#5E3200" d="M21.492,46.911c-0.118,0-0.235-0.006-0.35-0.017c-3.346-0.33-4.214-4.442-4.25-4.618
			c-0.055-0.27,0.12-0.533,0.391-0.588c0.268-0.054,0.534,0.119,0.589,0.39c0.007,0.035,0.76,3.564,3.368,3.82
			c1.258,0.133,2.837-0.704,4.033-2.107c1.561-1.832,2.119-4.157,1.533-6.379c-0.292-1.107-1.053-1.758-2.142-1.832
			c-1.492-0.095-3.564,0.961-4.628,3.524c-0.106,0.255-0.398,0.377-0.654,0.271c-0.255-0.106-0.376-0.398-0.27-0.653
			c1.254-3.021,3.788-4.269,5.621-4.139c1.505,0.102,2.642,1.064,3.04,2.573c0.671,2.543,0.037,5.198-1.739,7.283
			C24.714,45.989,23.005,46.911,21.492,46.911z"/>
	</g>
	<g>
		<path fill="#F0AB5E" d="M22.358,14.681c0.177-1.531,2.446-2.151,2.522,0.574c0.039,1.433-0.967,1.898-1.382,1.807
			C22.711,16.889,22.276,15.395,22.358,14.681z"/>
	</g>
	<g>
		<path fill="none" stroke="#81838C" stroke-miterlimit="10" d="M22.79,3.821"/>
	</g>
</g>
</svg>
