<?xml version="1.0" encoding="utf-8"?>
<!-- Generator: Adobe Illustrator 15.0.2, SVG Export Plug-In . SVG Version: 6.00 Build 0)  -->
<!DOCTYPE svg PUBLIC "-//W3C//DTD SVG 1.1//EN" "http://www.w3.org/Graphics/SVG/1.1/DTD/svg11.dtd">
<svg version="1.1" id="Layer_1" xmlns="http://www.w3.org/2000/svg" xmlns:xlink="http://www.w3.org/1999/xlink" x="0px" y="0px"
	 width="48px" height="34px" viewBox="0 7 48 34" enable-background="new 0 7 48 34" xml:space="preserve">
<g>
	<path fill="#404145" d="M24,38.449c4.195-5.459,10.23-9.423,17.177-10.978C38.891,20.161,32.066,14.855,24,14.855
		c-8.065,0-14.89,5.306-17.176,12.619C13.77,29.026,19.805,32.989,24,38.449z"/>
	<path fill="#333438" d="M39.43,24.612c0,0-6.43-11.134-15.429-11.134v0.003v-0.003c-8.999,0-15.43,11.134-15.43,11.134
		s9.425,2.562,15.43,6.978v-0.001v0.001C30.006,27.174,39.43,24.612,39.43,24.612z"/>
	<g>
		<path fill="#FFFFFF" d="M10.108,38.13c0,0,0.682,0.639,2.805,0.639s2.805-0.639,2.805-0.639l-1.03-6.994
			c0,0-0.222-1.966-1.775-1.966c-1.553,0-1.775,1.915-1.775,1.915L10.108,38.13z"/>
		<path fill="#1F1F21" d="M12.913,39.769c-2.396,0-3.326-0.757-3.488-0.908c-0.239-0.224-0.354-0.551-0.306-0.875l1.03-7.045
			c0.108-0.938,0.832-2.771,2.765-2.771c1.935,0,2.658,1.866,2.769,2.854l1.025,6.961c0.048,0.324-0.066,0.651-0.306,0.875
			C16.239,39.012,15.31,39.769,12.913,39.769z M11.202,37.562c0.333,0.099,0.883,0.207,1.711,0.207c0.823,0,1.371-0.106,1.71-0.211
			l-0.924-6.275c-0.005-0.037-0.15-1.111-0.786-1.111c-0.638,0-0.777,0.995-0.783,1.038L11.202,37.562z"/>
	</g>
	<path fill="#1F1F21" d="M24,39.449L24,39.449c-0.311,0-0.604-0.146-0.793-0.392c-4.126-5.369-10.021-9.138-16.602-10.609
		c-0.273-0.062-0.508-0.233-0.647-0.477c-0.14-0.242-0.172-0.531-0.089-0.799C8.361,19.208,15.647,13.855,24,13.855
		c8.354,0,15.639,5.353,18.131,13.319c0.084,0.269,0.053,0.558-0.088,0.8c-0.141,0.241-0.375,0.414-0.646,0.476
		c-6.58,1.472-12.477,5.239-16.604,10.61C24.604,39.306,24.311,39.449,24,39.449z M8.128,26.761
		c6.19,1.625,11.754,5.162,15.872,10.09c4.119-4.928,9.684-8.466,15.872-10.09C37.363,20.195,31.113,15.855,24,15.855
		C16.885,15.855,10.636,20.195,8.128,26.761z"/>
	<polygon fill="#404145" points="46.941,16.97 24,9.231 1.059,16.97 24,26.606 	"/>
	<path fill="#1F1F21" d="M24,27.606c-0.132,0-0.264-0.025-0.387-0.078L0.671,17.892c-0.383-0.161-0.627-0.542-0.612-0.958
		s0.286-0.778,0.68-0.912L23.68,8.283c0.208-0.069,0.432-0.069,0.64,0l22.942,7.739c0.395,0.133,0.664,0.496,0.68,0.912
		s-0.229,0.797-0.611,0.958l-22.942,9.636C24.264,27.581,24.132,27.606,24,27.606z M3.884,17.072L24,25.522l20.116-8.451L24,10.287
		L3.884,17.072z"/>
	<g>
		<circle fill="#FFFFFF" cx="12.913" cy="27.307" r="1.776"/>
		<path fill="#1F1F21" d="M12.913,29.583c-1.255,0-2.276-1.021-2.276-2.275c0-1.256,1.021-2.277,2.276-2.277
			s2.276,1.021,2.276,2.277C15.189,28.562,14.168,29.583,12.913,29.583z M12.913,26.03c-0.704,0-1.276,0.572-1.276,1.275
			c0,0.704,0.572,1.276,1.276,1.276s1.276-0.572,1.276-1.276C14.189,26.603,13.617,26.03,12.913,26.03z"/>
	</g>
	<path fill="#1F1F21" d="M12.913,26.03c-0.276,0-0.5-0.225-0.5-0.5v-3.939c0-0.197,0.115-0.375,0.295-0.456l11.087-4.987
		c0.25-0.115,0.547,0,0.661,0.251c0.112,0.252,0.001,0.548-0.251,0.661l-10.792,4.854v3.616
		C13.413,25.808,13.189,26.03,12.913,26.03z"/>
	<g>
		<ellipse fill="#81838C" cx="24" cy="16.348" rx="1.7" ry="0.993"/>
		<path fill="#1F1F21" d="M24,17.841c-1.254,0-2.2-0.642-2.2-1.493s0.946-1.493,2.2-1.493s2.2,0.642,2.2,1.493
			S25.254,17.841,24,17.841z M24,15.855c-0.733,0-1.2,0.324-1.2,0.493s0.467,0.493,1.2,0.493c0.732,0,1.2-0.324,1.2-0.493
			S24.732,15.855,24,15.855z"/>
	</g>
</g>
</svg>
