<?xml version="1.0" encoding="utf-8"?>
<!-- Generator: Adobe Illustrator 15.0.2, SVG Export Plug-In . SVG Version: 6.00 Build 0)  -->
<!DOCTYPE svg PUBLIC "-//W3C//DTD SVG 1.1//EN" "http://www.w3.org/Graphics/SVG/1.1/DTD/svg11.dtd">
<svg version="1.1" id="Layer_1" xmlns="http://www.w3.org/2000/svg" xmlns:xlink="http://www.w3.org/1999/xlink" x="0px" y="0px"
	 width="48px" height="48px" viewBox="0 0 48 48" enable-background="new 0 0 48 48" xml:space="preserve">
<polygon fill="#404B57" points="10.311,17.464 2.312,36.536 5.888,43.107 12.404,42.191 "/>
<polygon fill="#F4D01D" points="13.276,46.316 8.822,3.003 41.146,1.358 46.04,42.746 "/>
<polygon fill="#396A8C" points="15.437,8.674 35.848,7.636 39.371,37.438 18.627,39.698 "/>
<path fill="#DD7526" d="M13.276,47.316c-0.228,0-0.45-0.078-0.629-0.224c-0.207-0.167-0.338-0.409-0.366-0.675L7.827,3.105
	C7.799,2.833,7.884,2.56,8.062,2.352C8.241,2.144,8.497,2.018,8.77,2.004L41.098,0.36c0.522-0.024,0.981,0.358,1.043,0.881
	l4.894,41.388c0.03,0.266-0.046,0.531-0.211,0.74c-0.166,0.208-0.408,0.342-0.675,0.371l-32.764,3.57
	C13.348,47.314,13.312,47.316,13.276,47.316z M9.924,3.948l4.243,41.265l30.761-3.352L40.266,2.405L9.924,3.948z"/>
<g>
	<g>
		<path fill="#FFFFFF" d="M17.017,24.717c0.346-0.673,0.794-1.603,1.273-1.995s4.102,0.945,4.072,1.784
			c-0.029,0.834-1.393,14.938-1.393,14.938s-1.618,0.177-2.342,0.256L17.017,24.717z"/>
	</g>
	<g>
		
			<ellipse transform="matrix(0.2668 -0.9638 0.9638 0.2668 -1.8757 34.8993)" fill="#FFFFFF" cx="21.998" cy="18.682" rx="3.849" ry="2.76"/>
	</g>
	<g>
		
			<ellipse transform="matrix(-0.1114 -0.9938 0.9938 -0.1114 9.0513 64.936)" fill="#FFFFFF" cx="33.557" cy="28.421" rx="2.958" ry="2.12"/>
	</g>
	<g>
		<g>
			
				<ellipse transform="matrix(0.1279 -0.9918 0.9918 0.1279 -0.3957 49.2214)" fill="#FFFFFF" cx="27.791" cy="24.836" rx="3.672" ry="2.632"/>
		</g>
		<g>
			<path fill="#FFFFFF" d="M23.158,39.311c0.617-4.812,1.749-9.477,2.244-9.871c0.386-0.309,3.17-0.063,3.531,0.386
				c0.479,0.596,1.125,8.733,1.125,8.733S24.579,39.217,23.158,39.311z"/>
		</g>
	</g>
	<g>
		<path fill="#FFFFFF" d="M31.689,38.225c0,0,0.574-5.265,0.943-5.77s2.483-0.719,2.876-0.379c0.394,0.34,1.64,5.604,1.64,5.604
			L31.689,38.225z"/>
	</g>
</g>
<path fill="#F6B02C" d="M18.627,40.198c-0.114,0-0.225-0.039-0.314-0.111c-0.104-0.084-0.169-0.205-0.183-0.338L14.94,8.726
	c-0.014-0.137,0.029-0.272,0.118-0.377c0.089-0.104,0.217-0.167,0.354-0.174l20.411-1.039c0.286-0.023,0.491,0.18,0.521,0.441
	l3.523,29.802c0.016,0.133-0.021,0.266-0.104,0.37c-0.084,0.104-0.205,0.171-0.339,0.187l-20.744,2.26
	C18.663,40.197,18.645,40.198,18.627,40.198z M15.988,9.147l3.085,30l19.743-2.15l-3.41-28.837L15.988,9.147z"/>
</svg>
