<?xml version="1.0" encoding="utf-8"?>
<!-- Generator: Adobe Illustrator 15.0.2, SVG Export Plug-In . SVG Version: 6.00 Build 0)  -->
<!DOCTYPE svg PUBLIC "-//W3C//DTD SVG 1.1//EN" "http://www.w3.org/Graphics/SVG/1.1/DTD/svg11.dtd">
<svg version="1.1" id="Layer_1" xmlns="http://www.w3.org/2000/svg" xmlns:xlink="http://www.w3.org/1999/xlink" x="0px" y="0px"
	 width="48px" height="48px" viewBox="0 0 48 48" enable-background="new 0 0 48 48" xml:space="preserve">
<g>
	<g>
		<path fill="#5CADE5" d="M46.875,24c0,5.854-2.233,11.708-6.699,16.175h-0.001c-4.467,4.467-10.321,6.7-16.175,6.7V24.001L24,24h0
			H46.875z"/>
		<polygon fill="#FF5C92" points="24,24 24,24 24,24 		"/>
		<polygon fill="#FF5C92" points="24,24.001 24,24 24,24 		"/>
		<path fill="#55D688" d="M40.176,7.824L40.176,7.824c4.466,4.467,6.699,10.321,6.699,16.176H24H24V1.125
			C29.854,1.125,35.709,3.357,40.176,7.824z"/>
		<path fill="#FF5C92" d="M24,1.125V24H1.125c0-5.854,2.232-11.709,6.699-16.176l0,0C12.291,3.357,18.146,1.125,24,1.125z"/>
		<path fill="#B07AC8" d="M24,24L24,24v22.875c-5.854,0-11.708-2.233-16.174-6.7H7.824C3.358,35.708,1.125,29.854,1.125,24H24z"/>
	</g>
	<g>
		<path fill="#FFFFFF" d="M24,4.125c10.959,0,19.875,8.916,19.875,19.875S34.959,43.875,24,43.875S4.125,34.959,4.125,24
			S13.041,4.125,24,4.125 M24,1.125C11.366,1.125,1.125,11.366,1.125,24S11.366,46.875,24,46.875
			c12.635,0,22.875-10.241,22.875-22.875S36.635,1.125,24,1.125L24,1.125z"/>
		<path fill="#FFFFFF" d="M39.137,39.943c-2.33-1.92-5.848-3.674-9.086-5.012c-2.387-0.988-2.25-2.469-2.217-3.391
			c0.131-3.46,4.174-6.252,4.174-12.867c0-5.591-3.479-8.79-8.008-8.79c-4.53,0-8.007,3.199-8.007,8.79
			c0,6.615,4.043,9.407,4.174,12.867c0.034,0.922,0.169,2.402-2.217,3.391c-3.237,1.338-6.756,3.092-9.086,5.012l-0.746,0.617
			c0,0,5.274,6.383,15.882,6.383s15.881-6.105,15.881-6.105L39.137,39.943z"/>
		<g>
			<path fill="#002B5C" d="M24,2c12.131,0,22,9.869,22,22s-9.869,22-22,22S2,36.131,2,24S11.869,2,24,2 M24,0
				C10.745,0,0,10.745,0,24s10.745,24,24,24c13.256,0,24-10.745,24-24S37.256,0,24,0L24,0z"/>
		</g>
	</g>
</g>
</svg>
