<?xml version="1.0" encoding="utf-8"?>
<!-- Generator: Adobe Illustrator 15.0.2, SVG Export Plug-In . SVG Version: 6.00 Build 0)  -->
<!DOCTYPE svg PUBLIC "-//W3C//DTD SVG 1.1//EN" "http://www.w3.org/Graphics/SVG/1.1/DTD/svg11.dtd">
<svg version="1.1" id="Layer_1" xmlns="http://www.w3.org/2000/svg" xmlns:xlink="http://www.w3.org/1999/xlink" x="0px" y="0px"
	 width="48px" height="48px" viewBox="0 0 48 48" enable-background="new 0 0 48 48" xml:space="preserve">
<path fill="#004580" d="M38.394,4.795C38.064,4.548,37.73,4.31,37.39,4.081C33.564,1.505,28.958,0,24,0
	C17.273,0,11.197,2.771,6.839,7.229c-0.486,0.497-0.953,1.012-1.394,1.55C2.043,12.921,0,18.222,0,24
	c0,11.384,7.928,20.91,18.562,23.374C20.311,47.779,22.129,48,24,48c2.927,0,5.73-0.525,8.324-1.484C41.476,43.131,48,34.329,48,24
	C48,16.146,44.227,9.173,38.394,4.795z"/>
<path fill="#4D90FF" d="M37.097,6.335c-0.334-0.248-0.677-0.484-1.024-0.713c-0.297-0.196-0.599-0.384-0.905-0.566
	C31.891,3.118,28.074,2,24,2C17.537,2,11.716,4.803,7.688,9.256C7.385,9.59,7.096,9.937,6.814,10.289
	c-0.355,0.445-0.698,0.901-1.019,1.374C3.401,15.184,2,19.431,2,24c0,10.828,7.865,19.847,18.181,21.661
	c0.462,0.081,0.928,0.151,1.4,0.203c0.383,0.042,0.769,0.075,1.157,0.097C23.156,45.985,23.576,46,24,46
	c2.322,0,4.56-0.364,6.663-1.034c1.498-0.478,2.925-1.113,4.266-1.885c1.764-1.015,3.376-2.264,4.789-3.709
	C43.601,35.402,46,29.978,46,24C46,16.772,42.495,10.348,37.097,6.335z"/>
<path fill="#8AC0FF" d="M42.014,30.959c-1.082-0.445-2.133-0.643-3.059-0.816c-0.306-0.057-0.599-0.112-0.88-0.173
	c-0.314-0.237-0.652-0.496-1.005-0.767c-3.21-2.46-5.271-3.954-6.815-3.954c-0.063,0-0.125,0.002-0.186,0.007l-0.092,0.007
	l-0.09,0.017c-1.555,0.286-2.682,0.42-3.548,0.42c-0.316,0-0.565-0.019-0.762-0.046c0.379-0.668,0.949-1.748,0.505-3.148
	c-0.035-0.113-0.902-2.781-2.822-2.781c-0.181,0-0.361,0.024-0.534,0.073c-0.338,0.095-0.875,0.247-2.289,1.98
	c-0.267-0.087-0.502-0.23-0.635-0.458c-0.238-0.411-0.17-1.113,0.169-1.813c0.514-0.644,1.664-1.025,3.108-1.025
	c0.468,0,0.936,0.042,1.355,0.124c0.552,0.106,1.305,0.916,1.855,1.506c0.826,0.889,1.607,1.729,2.777,1.729
	c0.153,0,0.308-0.016,0.457-0.048c2.142-0.459,2.752-1.825,2.625-2.854c-0.13-1.041-0.878-1.914-1.537-2.684
	c-0.184-0.213-0.434-0.506-0.507-0.627c-0.053-0.086-0.092-0.157-0.122-0.215c0.041-0.047,0.084-0.096,0.122-0.139
	c0.225-0.255,0.532-0.605,0.845-1.065c0.716-1.055,0.886-2.148,1.023-3.027c0.098-0.63,0.175-1.127,0.408-1.492
	c0.238-0.338,1.438-1.106,2.231-1.615c0.928-0.595,1.788-1.152,2.482-1.738c-0.334-0.248-0.677-0.484-1.024-0.713
	c-0.297-0.196-0.599-0.384-0.905-0.566C31.891,3.118,28.074,2,24,2C17.537,2,11.716,4.803,7.688,9.256
	C7.385,9.59,7.096,9.937,6.814,10.289c-0.355,0.445-0.698,0.901-1.019,1.374c0.078,0.594,0.142,1.212,0.094,1.447
	c-0.93,2.935-0.223,9.636,3.25,11.388c0.427,0.216,0.822,0.32,1.208,0.32c0.39,0,0.755-0.106,1.065-0.304
	c0.588,0.963,1.506,1.841,3.085,2.315c0.903,0.271,1.833,0.378,2.652,0.473c0.755,0.087,1.533,0.176,1.968,0.369
	c0.124,0.281,0.267,0.811,0.319,1.003c0.092,0.34,0.152,0.563,0.302,0.81c0.403,0.662,1.113,0.961,2.142,1.255
	c-1.548,1.717-3.369,4.203-2.593,6.668c0.417,1.324,1.42,2.428,2.226,3.315c0.286,0.314,0.698,0.768,0.865,1.023
	c-0.076,0.714-1.084,2.719-2.198,3.916c0.462,0.081,0.928,0.151,1.4,0.203c0.383,0.042,0.769,0.075,1.157,0.097
	C23.156,45.985,23.576,46,24,46c2.322,0,4.56-0.364,6.663-1.034c1.498-0.478,2.925-1.113,4.266-1.885
	c1.764-1.015,3.376-2.264,4.789-3.709c1.932-2.71,3.286-5.434,3.348-6.763l0.055-1.195L42.014,30.959z"/>
<path fill="#487300" d="M41.558,32.068c-0.969-0.398-1.912-0.575-2.824-0.746c-0.396-0.074-0.789-0.148-1.174-0.239
	c-0.373-0.278-0.786-0.595-1.22-0.928c-2.831-2.17-4.925-3.706-6.085-3.706l-0.15,0.01c-1.627,0.3-2.824,0.439-3.765,0.439
	c-1.142,0.001-1.899-0.208-2.306-0.637c0.046-0.402,0.248-0.757,0.46-1.129c0.35-0.615,0.747-1.313,0.445-2.265
	c-0.006-0.02-0.678-1.944-1.679-1.944l-0.209,0.029c-0.489,0.138-1.393,1.192-2.121,2.135c-1.029-0.09-1.775-0.491-2.167-1.167
	c-0.465-0.803-0.391-1.953,0.166-3.023c1.018-1.459,3.242-1.617,4.151-1.617c0.542,0,1.09,0.05,1.583,0.146
	c0.937,0.18,1.77,1.077,2.505,1.868c0.773,0.832,1.42,1.475,2.104,1.324c1.145-0.245,1.774-0.819,1.686-1.534
	c-0.084-0.682-0.681-1.377-1.257-2.05c-0.257-0.299-0.498-0.581-0.623-0.787c-0.582-0.964-0.46-1.103,0.126-1.769
	c0.215-0.244,0.482-0.548,0.753-0.946c0.564-0.832,0.7-1.699,0.83-2.538c0.11-0.708,0.215-1.375,0.583-1.953
	c0.342-0.536,1.487-1.27,2.596-1.98c0.763-0.489,1.5-0.965,2.105-1.441c-0.297-0.196-0.599-0.384-0.905-0.566
	C31.891,3.118,28.074,2,24,2C17.537,2,11.716,4.803,7.688,9.256C7.385,9.59,7.096,9.937,6.814,10.289
	c0.02,0.138,0.037,0.271,0.058,0.41c0.154,1.051,0.328,2.242,0.169,2.744c-0.787,2.488-0.199,8.551,2.639,9.983
	c0.604,0.305,1.051,0.229,1.297-0.127c0.367-0.533,0.037-1.476-0.532-2.97c-0.19-0.5-0.478-1.255-0.498-1.362
	c0.056-0.126,0.102-0.195,0.112-0.228c0.088,0.06,0.312,0.264,0.716,0.957c0.378,0.646,0.598,1.371,0.811,2.071
	c0.482,1.588,0.98,3.23,3.257,3.913c0.801,0.241,1.636,0.337,2.444,0.43c1.053,0.121,2.046,0.235,2.669,0.658
	c0.169,0.115,0.385,0.651,0.64,1.594c0.076,0.28,0.107,0.396,0.167,0.494c0.232,0.381,0.835,0.572,2.258,0.947
	c0.336,0.089,0.784,0.207,1.099,0.311c-0.125,0.134-0.276,0.291-0.418,0.438c-1.398,1.455-4.002,4.163-3.269,6.495
	c0.338,1.072,1.205,2.026,1.969,2.867c0.498,0.549,0.968,1.066,1.139,1.46c0.289,0.667-0.727,2.9-1.96,4.49
	c0.383,0.042,0.769,0.075,1.157,0.097C23.156,45.985,23.576,46,24,46c2.322,0,4.56-0.364,6.663-1.034
	c1.498-0.478,2.925-1.113,4.266-1.885c3.658-3.354,6.861-8.864,6.938-10.526l0.017-0.352L41.558,32.068z"/>
<g>
	<path fill="#87CF0C" d="M7.994,13.745c-0.673,2.129-0.1,7.64,2.123,8.782c-0.083-0.466-0.412-1.333-0.606-1.843
		c-0.455-1.193-0.648-1.737-0.477-2.124c0.248-0.559,0.588-0.842,1.011-0.842c0.646,0,1.148,0.708,1.595,1.473
		c0.437,0.748,0.674,1.529,0.904,2.285c0.461,1.518,0.825,2.717,2.587,3.246c0.716,0.215,1.507,0.306,2.271,0.394
		c1.178,0.135,2.291,0.263,3.116,0.823c0.519,0.353,0.8,1.261,1.043,2.16c0.023,0.086,0.042,0.159,0.059,0.215
		c0.256,0.152,1.124,0.381,1.656,0.521c1.457,0.385,1.966,0.542,2.062,1.018c0.073,0.362-0.156,0.602-0.916,1.392
		c-1.166,1.212-3.591,3.735-3.036,5.501c0.271,0.862,1.06,1.73,1.755,2.496c0.58,0.638,1.08,1.188,1.316,1.735
		c0.493,1.141-0.609,3.386-1.721,4.983C23.156,45.985,23.576,46,24,46c2.322,0,4.56-0.364,6.663-1.034
		c0.538-0.337,1.177-0.771,2.053-1.377c3.964-2.745,7.568-8.842,8.089-10.737c-0.754-0.265-1.516-0.407-2.256-0.547
		c-0.449-0.084-0.892-0.167-1.325-0.274l-0.179-0.084c-0.398-0.296-0.844-0.637-1.313-0.997c-1.818-1.394-4.566-3.5-5.477-3.5
		c-1.658,0.305-2.912,0.449-3.915,0.449c-1.591,0.001-2.645-0.384-3.221-1.175l-0.096-0.132l0-0.163
		c0.002-0.738,0.321-1.297,0.602-1.791c0.339-0.596,0.523-0.958,0.361-1.468c-0.134-0.424-0.509-1.045-0.722-1.217
		c-0.292,0.22-1.09,1.149-1.7,1.952l-0.157,0.207l-0.26-0.01c-1.5-0.056-2.653-0.652-3.249-1.68
		c-0.639-1.102-0.572-2.613,0.178-4.043c0.939-1.353,2.751-2.099,5.004-2.099c0.605,0,1.218,0.057,1.772,0.164
		c1.258,0.241,2.251,1.31,3.049,2.168c0.381,0.409,0.955,1.027,1.167,1.027c0.639-0.138,0.886-0.367,0.898-0.431
		c-0.048-0.385-0.612-1.043-1.024-1.524c-0.283-0.331-0.552-0.644-0.719-0.92c-0.915-1.515-0.508-2.106,0.23-2.946
		c0.207-0.235,0.441-0.501,0.676-0.847c0.439-0.646,0.552-1.367,0.671-2.13c0.121-0.778,0.246-1.583,0.727-2.336
		c0.461-0.722,1.646-1.481,2.899-2.285c0.569-0.365,1.199-0.769,1.74-1.165C31.891,3.118,28.074,2,24,2
		C17.537,2,11.716,4.803,7.688,9.256c0.046,0.42,0.111,0.87,0.173,1.298C8.047,11.824,8.222,13.023,7.994,13.745z"/>
</g>
</svg>
