<?xml version="1.0" encoding="utf-8"?>
<!-- Generator: Adobe Illustrator 15.0.2, SVG Export Plug-In . SVG Version: 6.00 Build 0)  -->
<!DOCTYPE svg PUBLIC "-//W3C//DTD SVG 1.1//EN" "http://www.w3.org/Graphics/SVG/1.1/DTD/svg11.dtd">
<svg version="1.1" id="Layer_1" xmlns="http://www.w3.org/2000/svg" xmlns:xlink="http://www.w3.org/1999/xlink" x="0px" y="0px"
	 width="48px" height="48px" viewBox="0 0 48 48" enable-background="new 0 0 48 48" xml:space="preserve">
<path fill="#00B5CC" d="M29.577,15.884c1.604-0.377,2.537-2.244,2.082-4.171c-0.448-1.927-2.114-3.184-3.723-2.807
	c-1.607,0.379-2.542,2.245-2.092,4.173C26.3,15.006,27.964,16.263,29.577,15.884z M34.768,15.413
	c1.157-0.038,2.049-1.289,1.994-2.792c-0.045-1.5-1.022-2.686-2.183-2.647c-1.157,0.04-2.049,1.29-1.996,2.792
	C32.629,14.268,33.609,15.453,34.768,15.413z M39.084,16.96c1.03-0.021,1.836-1.125,1.809-2.464
	c-0.02-1.337-0.878-2.405-1.916-2.387c-1.03,0.022-1.836,1.126-1.811,2.464S38.046,16.979,39.084,16.96z M42.528,19.49
	c0.938,0.043,1.738-0.917,1.793-2.135c0.062-1.222-0.659-2.244-1.604-2.289c-0.943-0.038-1.737,0.917-1.798,2.14
	C40.867,18.424,41.586,19.447,42.528,19.49z M45.527,18.73c-0.851-0.124-1.653,0.62-1.809,1.661c-0.152,1.04,0.405,1.985,1.26,2.111
	c0.849,0.127,1.653-0.62,1.808-1.66C46.945,19.802,46.378,18.855,45.527,18.73z M40.155,19.228
	c-5.781-4.359-10.997-3.174-12.023-0.084c-1.028,3.089,1.065,4.91,2.455,9.16c1.389,4.253,1.172,6.138-1.708,8.005
	c-2.88,1.865-5.228,5.136-4.374,8.441c0.854,3.308,10.937,6.094,13.707-2.222c1.444-4.332,1.607-7.106,4.086-10.528
	C44.776,28.577,45.935,23.587,40.155,19.228z"/>
<path fill="#FF528C" d="M18.424,7.045c1.612,0.379,3.277-0.878,3.73-2.806c0.452-1.927-0.481-3.794-2.091-4.173
	c-1.607-0.376-3.274,0.88-3.724,2.808C15.886,4.801,16.819,6.667,18.424,7.045z"/>
<path fill="#FF528C" d="M13.231,6.574c1.16,0.04,2.14-1.146,2.188-2.647c0.051-1.502-0.84-2.752-1.998-2.792
	c-1.159-0.038-2.139,1.147-2.183,2.647C11.183,5.285,12.075,6.536,13.231,6.574z"/>
<path fill="#FF528C" d="M19.122,27.47c-2.88-1.868-3.098-3.753-1.708-8.005c1.39-4.251,3.483-6.071,2.455-9.161
	c-1.027-3.089-6.243-4.275-12.023,0.085c-5.78,4.359-4.622,9.351-2.143,12.772c2.478,3.421,2.641,6.197,4.085,10.529
	c2.771,8.313,12.853,5.527,13.707,2.222C24.35,32.604,22.002,29.337,19.122,27.47z"/>
<path fill="#FF528C" d="M8.917,8.12c1.036,0.019,1.892-1.048,1.918-2.386c0.024-1.338-0.781-2.441-1.812-2.464
	C7.986,3.252,7.127,4.32,7.108,5.656C7.08,6.996,7.887,8.1,8.917,8.12z"/>
<path fill="#FF528C" d="M5.472,10.651c0.944-0.043,1.661-1.066,1.606-2.284C7.021,7.144,6.225,6.188,5.282,6.227
	C4.339,6.271,3.617,7.294,3.68,8.517C3.733,9.734,4.534,10.693,5.472,10.651z"/>
<path fill="#FF528C" d="M4.282,11.553c-0.156-1.041-0.959-1.785-1.811-1.661c-0.85,0.125-1.418,1.071-1.257,2.112
	c0.153,1.04,0.959,1.786,1.806,1.659C3.875,13.538,4.436,12.593,4.282,11.553z"/>
</svg>
