<?xml version="1.0" encoding="utf-8"?>
<!-- Generator: Adobe Illustrator 15.0.2, SVG Export Plug-In . SVG Version: 6.00 Build 0)  -->
<!DOCTYPE svg PUBLIC "-//W3C//DTD SVG 1.1//EN" "http://www.w3.org/Graphics/SVG/1.1/DTD/svg11.dtd">
<svg version="1.1" id="Layer_1" xmlns="http://www.w3.org/2000/svg" xmlns:xlink="http://www.w3.org/1999/xlink" x="0px" y="0px"
	 width="48px" height="48px" viewBox="0 0 48 48" enable-background="new 0 0 48 48" xml:space="preserve">
<g>
	<path fill="#9252AE" d="M44.01,9.544c-5.454-5.85-14.511-5.85-20.005,1.718C18.503,3.694,9.45,3.694,3.995,9.544
		c-4.787,5.136-3.359,12.789,1.026,17.94c5.742,6.722,18.983,16.9,18.983,16.9s13.237-10.179,18.969-16.9
		C47.365,22.333,48.789,14.68,44.01,9.544z"/>
	<path fill="#41005E" d="M24.005,45.671l-0.622-0.478C22.839,44.774,9.991,34.872,4.246,28.146
		c-4.504-5.29-6.292-13.617-0.997-19.298c2.717-2.913,6.279-4.518,10.033-4.518c4.076,0,7.841,1.863,10.722,5.276
		c2.879-3.414,6.642-5.276,10.718-5.276c3.755,0,7.318,1.604,10.034,4.517c5.291,5.687,3.499,14.013-1.006,19.298
		c-5.734,6.727-18.579,16.629-19.123,17.048L24.005,45.671z M13.282,6.371c-3.182,0-6.215,1.373-8.541,3.868
		c-4.481,4.809-2.86,11.982,1.057,16.584c4.903,5.739,15.528,14.173,18.207,16.27c2.678-2.097,13.299-10.531,18.193-16.27
		c3.918-4.6,5.543-11.772,1.064-16.585c-2.325-2.494-5.359-3.867-8.541-3.867c-3.808,0-7.321,1.95-9.891,5.49l-0.826,1.136
		l-0.825-1.136C20.605,8.321,17.09,6.371,13.282,6.371z"/>
</g>
<g>
	<path fill="#FF5C92" d="M38.233,14.034c-3.881-4.161-10.322-4.161-14.229,1.222c-3.913-5.383-10.353-5.383-14.233-1.222
		c-3.405,3.652-2.39,9.098,0.73,12.762c4.085,4.781,13.503,12.021,13.503,12.021s9.416-7.239,13.493-12.021
		C40.62,23.132,41.633,17.687,38.233,14.034z"/>
	<path fill="#41005E" d="M24.004,39.46l-0.311-0.239c-0.387-0.297-9.508-7.327-13.58-12.093c-3.143-3.691-4.397-9.493-0.716-13.441
		c1.892-2.028,4.37-3.145,6.979-3.145c2.913,0,5.599,1.37,7.627,3.876c2.025-2.506,4.71-3.876,7.622-3.876
		c2.61,0,5.09,1.116,6.98,3.145c3.678,3.952,2.421,9.753-0.721,13.44c-4.065,4.767-13.185,11.797-13.57,12.094L24.004,39.46z
		 M16.377,11.562c-2.323,0-4.537,1.002-6.233,2.82c-3.274,3.512-2.104,8.737,0.746,12.084c3.587,4.198,11.454,10.41,13.114,11.705
		c1.659-1.295,9.523-7.507,13.104-11.705c2.851-3.345,4.023-8.569,0.752-12.084c-1.696-1.818-3.91-2.82-6.234-2.82
		c-2.78,0-5.34,1.419-7.209,3.994l-0.412,0.568l-0.413-0.568C21.719,12.98,19.156,11.562,16.377,11.562z"/>
</g>
<g>
	<path fill="#FFFFFF" d="M33.013,18.032c-2.457-2.635-6.536-2.635-9.011,0.773c-2.479-3.408-6.555-3.408-9.013-0.773
		c-2.156,2.313-1.513,5.76,0.463,8.081c2.586,3.028,8.55,7.611,8.55,7.611s5.961-4.583,8.545-7.611
		C34.523,23.792,35.164,20.346,33.013,18.032z"/>
	<path fill="#41005E" d="M24.002,34.368l-0.311-0.239c-0.245-0.188-6.036-4.651-8.627-7.686c-2.043-2.399-2.853-6.179-0.448-8.759
		c1.233-1.323,2.851-2.051,4.556-2.051c1.833,0,3.527,0.828,4.829,2.35c1.301-1.521,2.994-2.35,4.828-2.35
		c1.705,0,3.323,0.728,4.557,2.05c2.403,2.584,1.592,6.362-0.45,8.76c-2.589,3.034-8.378,7.497-8.623,7.686L24.002,34.368z
		 M19.172,16.653c-1.419,0-2.771,0.613-3.81,1.727c-1.998,2.144-1.271,5.347,0.479,7.402c2.186,2.561,6.907,6.313,8.161,7.296
		c1.254-0.982,5.972-4.735,8.157-7.296c1.749-2.054,2.477-5.257,0.48-7.403c-1.038-1.112-2.391-1.726-3.811-1.726
		c-1.698,0-3.267,0.871-4.414,2.452l-0.413,0.568l-0.413-0.568C22.439,17.524,20.871,16.653,19.172,16.653z"/>
</g>
</svg>
