<?xml version="1.0" encoding="utf-8"?>
<!-- Generator: Adobe Illustrator 15.0.2, SVG Export Plug-In . SVG Version: 6.00 Build 0)  -->
<!DOCTYPE svg PUBLIC "-//W3C//DTD SVG 1.1//EN" "http://www.w3.org/Graphics/SVG/1.1/DTD/svg11.dtd">
<svg version="1.1" id="Layer_1" xmlns="http://www.w3.org/2000/svg" xmlns:xlink="http://www.w3.org/1999/xlink" x="0px" y="0px"
	 width="48px" height="48px" viewBox="0 0 48 48" enable-background="new 0 0 48 48" xml:space="preserve">
<g>
	<circle fill="#9EC5E7" cx="24" cy="24" r="23.117"/>
</g>
<polygon fill="#B5D7F5" points="24,3.12 25.041,16.093 29.404,3.831 27.053,16.632 34.44,5.917 28.854,17.672 38.764,9.235 
	30.327,19.145 42.083,13.56 31.369,20.948 44.168,18.596 31.907,22.959 44.881,24 31.907,25.041 44.168,29.404 31.369,27.053 
	42.083,34.44 30.327,28.854 38.764,38.764 28.854,30.327 34.44,42.083 27.053,31.369 29.404,44.168 25.041,31.907 24,44.881 
	22.959,31.907 18.596,44.168 20.948,31.369 13.56,42.083 19.145,30.327 9.235,38.764 17.672,28.854 5.917,34.44 16.632,27.053 
	3.831,29.404 16.093,25.041 3.12,24 16.093,22.959 3.831,18.596 16.632,20.948 5.917,13.56 17.672,19.145 9.235,9.235 
	19.145,17.672 13.56,5.917 20.948,16.632 18.596,3.831 22.959,16.093 "/>
<g>
	<circle fill="#FFFFFF" cx="3.022" cy="26.359" r="2.468"/>
	<circle fill="#FFFFFF" cx="10.694" cy="28.828" r="5.204"/>
	<circle fill="#FFFFFF" cx="11.309" cy="34.889" r="5.204"/>
	<circle fill="#FFFFFF" cx="37.623" cy="24" r="5.204"/>
	<circle fill="#FFFFFF" cx="34.348" cy="31.097" r="5.205"/>
	<circle fill="#FFFFFF" cx="40.644" cy="31.564" r="5.204"/>
	<circle fill="#FFFFFF" cx="43.235" cy="26.872" r="4.394"/>
	<circle fill="#FFFFFF" cx="14.404" cy="24.877" r="3.095"/>
	<circle fill="#FFFFFF" cx="17.697" cy="25.737" r="1.591"/>
	<circle fill="#FFFFFF" cx="6.305" cy="26.157" r="1.591"/>
	<circle fill="#FFFFFF" cx="19.288" cy="24.479" r="1.591"/>
	<circle fill="#FFFFFF" cx="46.038" cy="22.995" r="1.591"/>
	<circle fill="#FFFFFF" cx="45.634" cy="20.563" r="1.591"/>
	<circle fill="#FFFFFF" cx="45.347" cy="19.24" r="1.591"/>
	<circle fill="#FFFFFF" cx="15.657" cy="30.471" r="3.095"/>
	<circle fill="#FFFFFF" cx="18.096" cy="25.737" r="3.095"/>
	<circle fill="#FFFFFF" cx="32.418" cy="26.359" r="3.096"/>
	<circle fill="#FFFFFF" cx="30.541" cy="27.375" r="1.878"/>
	<circle fill="#FFFFFF" cx="32.418" cy="22.134" r="1.303"/>
	<circle fill="#FFFFFF" cx="30.54" cy="23.44" r="1.878"/>
	<circle fill="#FFFFFF" cx="43.309" cy="20.563" r="1.878"/>
	<circle fill="#FFFFFF" cx="43.756" cy="22.135" r="1.878"/>
	<circle fill="#FFFFFF" cx="41.431" cy="21.404" r="1.878"/>
	<circle fill="#FFFFFF" cx="40.263" cy="20.001" r="2.64"/>
	<circle fill="#FFFFFF" cx="28.028" cy="25.317" r="1.878"/>
	<circle fill="#FFFFFF" cx="4.145" cy="29.253" r="3.095"/>
	<circle fill="#FFFFFF" cx="5.743" cy="32.781" r="3.095"/>
	<circle fill="#FFFFFF" cx="8.213" cy="35.833" r="3.095"/>
</g>
<g>
	<path fill="#81838C" d="M45.725,30.397L36.44,26.26l-7.059-6.158L24,13.795L13.231,26.051l-9.926,6.783l2.332,5.346
		C9.822,43.751,17.005,46.999,24,46.999C30.994,46.999,39.97,43.023,45.725,30.397z"/>
	<polygon fill="#A9ABB1" points="13.231,26.051 4.383,35.623 3.305,32.834 	"/>
	<polygon fill="#A9ABB1" points="24,13.795 22.794,19.58 25.3,22.896 11.096,37.134 18.198,24.485 11.468,30.397 16.513,22.316 	"/>
	<polygon fill="#A9ABB1" points="17.795,38.991 21.902,34.495 24.479,29.182 21.137,32 	"/>
</g>
<path fill="#636670" d="M3.306,33.334c-0.16,0-0.316-0.076-0.413-0.218c-0.156-0.229-0.098-0.539,0.13-0.695l9.875-6.747
	l10.727-12.209c0.095-0.108,0.232-0.17,0.375-0.17c0.161,0.026,0.286,0.064,0.38,0.175l5.381,6.307l6.951,6.057l9.215,4.106
	c0.253,0.112,0.366,0.408,0.254,0.66c-0.112,0.253-0.412,0.365-0.66,0.254l-9.284-4.138c-0.046-0.021-0.088-0.048-0.126-0.08
	l-7.059-6.158l-5.058-5.92L13.607,26.381c-0.027,0.031-0.059,0.06-0.093,0.083l-9.926,6.783C3.501,33.306,3.403,33.334,3.306,33.334
	z"/>
<g>
	<path fill="#404145" d="M24,2c12.131,0,22,9.869,22,22s-9.869,22-22,22S2,36.131,2,24S11.869,2,24,2 M24,0C10.745,0,0,10.745,0,24
		s10.745,24,24,24s24-10.745,24-24S37.255,0,24,0L24,0z"/>
</g>
</svg>
