<?xml version="1.0" encoding="utf-8"?>
<!-- Generator: Adobe Illustrator 19.2.1, SVG Export Plug-In . SVG Version: 6.00 Build 0)  -->
<svg version="1.1" id="Layer_1" xmlns="http://www.w3.org/2000/svg" xmlns:xlink="http://www.w3.org/1999/xlink" x="0px" y="0px"
	 viewBox="0 0 48 48" style="enable-background:new 0 0 48 48;" xml:space="preserve">
<style type="text/css">
	.st0{fill:#144A8A;}
	.st1{fill:#FFFFFF;}
	.st2{fill:#97AECF;}
	.st3{fill:#BFCEE3;}
	.st4{fill:#002B5C;}
</style>
<g>
	<rect x="7.9" y="3.8" class="st0" width="32.1" height="34.5"/>
	<rect x="11.7" y="8.1" class="st1" width="24" height="26.6"/>
	<path class="st2" d="M25.5,32.1H22c-0.6,0-1-0.4-1-1s0.4-1,1-1h3.6c0.6,0,1,0.4,1,1C26.5,31.6,26.2,32.1,25.5,32.1z"/>
	<g>
		<path class="st1" d="M34.3,33.3h-21V9.6h21V33.3z M14.2,32.3h19V10.6h-19V32.3z"/>
	</g>
	<rect x="7.4" y="39.6" class="st3" width="32.7" height="5.6"/>
	<g>
		<path class="st4" d="M42.5,35.6V6.4c0-3-2.4-5.4-5.4-5.4H10.9c-3,0-5.4,2.4-5.4,5.4v4.9l0,0v30.2c0,3,2.4,5.4,5.4,5.4h26.2
			c3,0,5.4-2.4,5.4-5.4V35.6L42.5,35.6z M39.5,35.6c0,1.3-1.1,2.4-2.4,2.4H8.5c0,0,0-1.1,0-2.4V6.4c0-1.2,1.1-2.3,2.4-2.3L37.1,4
			c1.3,0,2.4,1.1,2.4,2.4V35.6z M37.1,44H10.9c-1,0-2.2-0.4-2.2-1.5S9.5,41,10.9,41h26.2c0.9,0,1.7-0.2,2.4-0.6v1.2
			C39.5,42.9,38.4,44,37.1,44z"/>
	</g>
</g>
<path class="st4" d="M29.5,21H18c-0.6,0-1-0.4-1-1s0.4-1,1-1h11.6c0.6,0,1,0.4,1,1C30.5,20.5,30.2,21,29.5,21z M29.5,16H18
	c-0.6,0-1-0.4-1-1s0.4-1,1-1h11.6c0.6,0,1,0.4,1,1C30.5,15.5,30.2,16,29.5,16z"/>
</svg>
