<?xml version="1.0" encoding="utf-8"?>
<!-- Generator: Adobe Illustrator 19.2.1, SVG Export Plug-In . SVG Version: 6.00 Build 0)  -->
<svg version="1.1" id="Layer_1" xmlns="http://www.w3.org/2000/svg" xmlns:xlink="http://www.w3.org/1999/xlink" x="0px" y="0px"
	 viewBox="0 0 48 48" style="enable-background:new 0 0 48 48;" xml:space="preserve">
<style type="text/css">
	.st0{fill:#D9EAFF;}
	.st1{fill:#FFFFFF;}
	.st2{fill:#00B5CE;}
	.st3{fill:#002B5C;}
	.st4{fill:#0C7C9F;}
</style>
<g>
	<path class="st0" d="M22.8,12.5c-0.2-0.3-5.9-7.9-17.4-7.9C4.3,4.6,3.1,4.7,2,4.8c-0.3,0-0.5,0.2-0.5,0.5v31c0,0.3,0.3,0.5,0.6,0.5
		c0,0,0,0,0,0c1.1-0.1,2.3-0.2,3.4-0.2c9.4,0,15.4,4.6,18.1,7.4c0.1,0.1,0.3,0.2,0.4,0.2v-30L22.8,12.5z"/>
	<path class="st1" d="M46,4.9c-1.2-0.2-2.4-0.2-3.5-0.2c-11.4,0-17.1,7.5-17.3,7.9L24,14.2v30c0,0,0,0,0,0c0.1,0,0.2,0,0.3-0.1
		c2.8-2.8,8.8-7.4,18.2-7.4c1.1,0,2.3,0.1,3.5,0.2c0.2,0,0.3-0.1,0.4-0.1c0.1-0.1,0.1-0.2,0.1-0.3V5.4C46.5,5.1,46.3,4.9,46,4.9z"/>
</g>
<g>
	<path class="st2" d="M31,7.6v16.8c0,0.4,0.5,0.7,0.9,0.4l3.1-3.1l3.2,2.4c0.3,0.2,0.8,0,0.8-0.4v-19L31,7.6z"/>
</g>
<g>
	<rect x="23" y="12.6" class="st3" width="2" height="31"/>
</g>
<g>
	<g>
		<path class="st4" d="M31.5,25.9c-0.2,0-0.4,0-0.6-0.1C30.4,25.6,30,25,30,24.4V7.6h2v15.6l2.9-2.9l3.1,2.3v-18h2v19
			c0,0.6-0.3,1.1-0.8,1.3c-0.5,0.3-1.1,0.2-1.6-0.1l-2.5-1.9l-2.5,2.5C32.3,25.8,31.9,25.9,31.5,25.9z"/>
	</g>
</g>
<g>
	<g>
		<path class="st3" d="M18,17.9c-0.2,0-0.3,0-0.5-0.1c-2.9-1.7-6.1-2.8-9.6-3.1c-0.5-0.1-1-0.5-0.9-1.1c0.1-0.5,0.5-1,1.1-0.9
			c3.8,0.4,7.3,1.5,10.4,3.4c0.5,0.3,0.6,0.9,0.4,1.4C18.7,17.7,18.3,17.9,18,17.9z"/>
	</g>
	<g>
		<path class="st3" d="M18,25c-0.2,0-0.3,0-0.5-0.1c-2.9-1.7-6.1-2.8-9.6-3.1c-0.5-0.1-1-0.5-0.9-1.1c0.1-0.5,0.5-0.9,1.1-0.9
			c3.8,0.4,7.3,1.5,10.4,3.4c0.5,0.3,0.6,0.9,0.4,1.4C18.7,24.9,18.3,25,18,25z"/>
	</g>
	<g>
		<path class="st3" d="M18,32.2c-0.2,0-0.3,0-0.5-0.1c-2.9-1.7-6.1-2.8-9.6-3.1c-0.5-0.1-1-0.5-0.9-1.1c0.1-0.5,0.5-0.9,1.1-0.9
			c3.8,0.4,7.3,1.5,10.4,3.4c0.5,0.3,0.6,0.9,0.4,1.4C18.7,32.1,18.3,32.2,18,32.2z"/>
	</g>
</g>
<path class="st3" d="M46.2,3.4c-1.3-0.2-2.5-0.2-3.7-0.2C30.2,3.2,24,11.6,24,11.6S17.8,3.1,5.4,3.1c0,0,0,0,0,0v0l0,0
	C4.2,3.1,3,3.2,1.8,3.3c-1,0.1-1.8,1-1.8,2l0,31c0,1.1,0.9,2,2,2c0.1,0,0.2,0,0.2,0c1.1-0.1,2.2-0.2,3.2-0.2
	c8.9,0,14.6,4.4,17.1,6.9c0.4,0.4,0.9,0.6,1.4,0.6c0.5,0,1-0.2,1.4-0.6c2.5-2.5,8.2-6.9,17.1-6.9c1,0,2.1,0.1,3.2,0.2
	c0.1,0,0.2,0,0.2,0c1.1,0,2-0.9,2-2c0-5.4,0-25,0-30.9C48,4.4,47.2,3.5,46.2,3.4z M45,21.4v13.8c-0.8-0.1-1.7-0.1-2.5-0.1
	c-9.2,0-15.3,4.2-18.5,7.1c-3.2-2.9-9.3-7.1-18.5-7.1c-0.8,0-1.6,0-2.5,0.1l0-29c0.8-0.1,1.6-0.1,2.4-0.1v0l0,0
	c10.6,0,15.9,7,16.2,7.3l2.4,3.3l2.4-3.3c0.2-0.3,5.5-7.3,16.1-7.3c0.8,0,1.6,0,2.5,0.1V21.4z"/>
</svg>
