<?xml version="1.0" encoding="utf-8"?>
<!-- Generator: Adobe Illustrator 15.0.2, SVG Export Plug-In . SVG Version: 6.00 Build 0)  -->
<!DOCTYPE svg PUBLIC "-//W3C//DTD SVG 1.1//EN" "http://www.w3.org/Graphics/SVG/1.1/DTD/svg11.dtd">
<svg version="1.1" id="Layer_1" xmlns="http://www.w3.org/2000/svg" xmlns:xlink="http://www.w3.org/1999/xlink" x="0px" y="0px"
	 width="48px" height="48px" viewBox="0 0 48 48" enable-background="new 0 0 48 48" xml:space="preserve">
<circle fill="#FFFFFF" cx="24.001" cy="24" r="5.799"/>
<rect x="14.675" y="16.527" transform="matrix(0.7071 0.7071 -0.7071 0.7071 24.0006 -9.941)" fill="#FFFFFF" width="18.65" height="14.947"/>
<g>
	<path fill="#69C95E" d="M17.555,44.605l26.896-26.895c0.111-0.115,0.27-0.494,0.27-0.654l0.01-12.285
		C44.732,4.375,44.58,4,44.299,3.721c-0.281-0.281-0.654-0.471-1.053-0.471H31.008c-0.158,0.002-0.539,0.16-0.652,0.271
		L3.413,30.463c-0.195,0.193-0.195,0.514,0,0.707l13.435,13.436C17.043,44.801,17.359,44.801,17.555,44.605z M34.607,7.469
		c0.795-0.793,1.85-1.229,2.971-1.229s2.178,0.438,2.971,1.23s1.229,1.848,1.229,2.969c0,1.123-0.438,2.178-1.229,2.971
		s-1.848,1.229-2.971,1.229c-1.121,0-2.178-0.436-2.971-1.229C32.973,11.771,32.973,9.107,34.607,7.469z M13.889,24.816
		c0.391-0.393,1.023-0.393,1.414,0l7.896,7.896c0.391,0.393,0.391,1.021,0,1.414c-0.195,0.195-0.451,0.293-0.707,0.293
		s-0.512-0.098-0.707-0.293l-7.896-7.896C13.498,25.84,13.498,25.207,13.889,24.816z M9.646,29.062c0.391-0.395,1.023-0.395,1.414,0
		l7.896,7.895c0.391,0.393,0.391,1.023,0,1.414c-0.195,0.195-0.451,0.293-0.707,0.293s-0.514-0.098-0.707-0.293l-7.896-7.895
		C9.256,30.084,9.256,29.451,9.646,29.062z"/>
	<path fill="#002B5C" d="M46.42,1.6c-0.85-0.85-1.98-1.354-3.184-1.35h-12.24c-0.953,0.006-2.088,0.479-2.764,1.148L1.29,28.342
		c-1.363,1.363-1.363,3.584,0,4.949l13.437,13.438c1.365,1.361,3.586,1.361,4.951,0l26.896-26.895
		c0.674-0.676,1.145-1.812,1.148-2.766l0.01-12.287C47.734,3.578,47.27,2.447,46.42,1.6z M3.413,30.463l26.94-26.941
		c0.113-0.111,0.494-0.27,0.65-0.271h12.238c0.396,0,0.771,0.188,1.055,0.471C44.58,4,44.732,4.375,44.73,4.771l-0.01,12.285
		c-0.004,0.16-0.158,0.539-0.271,0.652L17.555,44.605c-0.193,0.191-0.512,0.191-0.707,0L3.413,31.17
		C3.218,30.977,3.218,30.656,3.413,30.463z"/>
	<path fill="#002B5C" d="M37.578,14.639c1.123,0,2.178-0.436,2.971-1.229s1.229-1.85,1.229-2.971s-0.438-2.176-1.229-2.969
		c-0.793-0.793-1.85-1.23-2.971-1.23s-2.176,0.438-2.971,1.229c-1.637,1.639-1.637,4.303,0,5.939
		C35.4,14.203,36.457,14.639,37.578,14.639z M36.021,8.883c0.416-0.416,0.969-0.643,1.557-0.643s1.141,0.229,1.557,0.645
		s0.645,0.967,0.645,1.555s-0.229,1.141-0.645,1.557c-0.832,0.83-2.279,0.83-3.111,0C35.166,11.137,35.166,9.742,36.021,8.883z"/>
</g>
</svg>
