<svg id="Layer_1" data-name="Layer 1" xmlns="http://www.w3.org/2000/svg" viewBox="0 0 48 48">
  <title>icon-b</title>
  <path d="M42.999,3.92719H37.00037V1a1,1,0,0,0-1-1H36a1,1,0,0,0-1,1V3.92719H12.00037V1a1,1,0,0,0-1-1H11a1,1,0,0,0-1,1V3.92719H4.999a3.0034,3.0034,0,0,0-3,3V41.50061a3.00336,3.00336,0,0,0,3,3h38a3.00336,3.00336,0,0,0,3-3V6.92719A3.0034,3.0034,0,0,0,42.999,3.92719ZM12.09113,42.50061H4.999a1.00292,1.00292,0,0,1-1-1V34h8.0921v8.50061Zm0-10.40948H3.999V25h8.0921v7.09113Zm0-9H3.999V15.90887h8.0921v7.18225ZM23.046,42.50061H14V34h9.046v8.50061Zm0-10.40948H14V25h9.046v7.09113Zm0-9H14V15.90887h9.046v7.18225ZM34,42.50061H24.9549V34H34v8.50061Zm0-10.40948H24.9549V25H34v7.09113Zm0-9H24.9549V15.90887H34v7.18225Zm9.999,18.40948a1.003,1.003,0,0,1-1,1H35.90887V34H43.999v7.50061Zm0-9.40948H35.90887V25H43.999v7.09113Zm0-9H35.90887V15.90887H43.999v7.18225ZM43.999,14h-40V6.92719a1.00292,1.00292,0,0,1,1-1H10V10a1,1,0,0,0,1,1h0.00037a1,1,0,0,0,1-1V5.92719H35V10a1,1,0,0,0,1,1h0.00037a1,1,0,0,0,1-1V5.92719H42.999a1.003,1.003,0,0,1,1,1V14Z"/>
</svg>
